<svg width="488" height="488" viewBox="0 0 488 488" fill="none" xmlns="http://www.w3.org/2000/svg">
<g clip-path="url(#clip0_4_3)">
<path d="M133.035 354.379C120.934 343.377 102.033 343.577 90.932 354.679C84.832 360.78 81.631 368.581 81.831 376.882C82.031 384.583 85.231 391.784 90.932 397.085C96.232 402.786 103.333 405.986 111.134 406.186C111.334 406.186 111.634 406.186 111.834 406.186C119.835 406.186 127.435 402.985 133.436 397.185C144.537 385.983 144.737 367.18 133.736 355.079C133.535 354.78 133.235 354.579 133.035 354.379ZM119.134 383.084C116.934 385.184 114.234 386.285 111.533 386.285C109.833 386.185 107.433 385.685 105.333 383.385C105.133 383.085 104.833 382.885 104.633 382.685C102.333 380.685 101.733 378.184 101.733 376.484C101.633 373.684 102.833 370.983 104.933 368.883C106.733 367.183 109.233 366.283 111.733 366.283C114.333 366.283 117.033 367.183 119.134 368.983C122.634 373.182 122.634 379.583 119.134 383.084Z" fill="#F73C2A"/>
<path d="M485.062 114.243L373.754 2.92502C369.854 -0.975982 363.553 -0.975982 359.653 2.92502L2.925 359.68C-0.975 363.581 -0.975 369.882 2.925 373.782L114.234 485.099C116.134 486.999 118.634 487.999 121.335 487.999C124.036 487.999 126.535 486.899 128.436 485.099L485.163 128.344C488.962 124.444 488.962 118.143 485.062 114.243ZM431.758 153.349L382.754 105.041C378.854 101.14 372.453 101.24 368.653 105.141C364.753 109.042 364.853 115.443 368.753 119.243L417.657 167.45L396.055 189.053L373.053 166.049C369.153 162.148 362.852 162.148 358.952 166.049C355.052 169.95 355.052 176.251 358.952 180.151L381.954 203.155L360.652 224.458L312.048 175.951C308.148 172.05 301.847 172.05 297.947 175.951C294.047 179.852 294.047 186.153 297.947 190.053L346.551 238.56L325.249 259.863L302.247 236.859C298.347 232.958 292.046 232.958 288.146 236.859C284.246 240.76 284.246 247.061 288.146 250.961L311.148 273.965L289.446 295.668L241.342 246.76C237.442 242.859 231.141 242.759 227.241 246.66C223.341 250.561 223.241 256.862 227.141 260.762L275.445 309.77L254.143 331.073L230.741 307.669C226.841 303.768 220.54 303.768 216.64 307.669C212.74 311.57 212.74 317.871 216.64 321.771L240.042 345.175L218.74 366.478L174.737 323.171C170.837 319.27 164.436 319.37 160.636 323.271C156.736 327.172 156.836 333.573 160.736 337.373L204.639 380.58L121.633 463.593L24.526 366.478L367.152 23.825L464.259 120.94L431.758 153.349Z" fill="#F73C2A"/>
</g>
<defs>
<clipPath id="clip0_4_3">
<rect width="488" height="488" fill="white"/>
</clipPath>
</defs>
</svg>
