<svg width="512" height="512" viewBox="0 0 512 512" fill="none" xmlns="http://www.w3.org/2000/svg">
<path d="M400.8 124.7H310.2V57H39.2999C23.6999 57 11.2 69.5 11.2 85.1V346.6C11.2 362.2 23.6999 374.7 39.2999 374.7H71.6999C70.8999 378.8 70.5 382.9 70.5 387.2C70.5 424.7 100.7 454.9 138.2 454.9C175.7 454.9 207 424.7 205.9 387.2C205.9 382.9 205.5 378.8 204.7 374.7H290.2H310H329C328.2 378.8 327.8 382.9 327.8 387.2C327.8 424.7 358 454.9 395.5 454.9C433 454.9 463.2 424.7 463.2 387.2C463.2 382.9 462.8 378.8 462 374.7H472.5C488.1 374.7 500.6 362.2 500.6 345.5V248.6L400.8 124.7V124.7ZM138.3 435.2C112.3 435.2 90.4 413.3 90.4 387.3C90.4 361.3 112.3 339.4 138.3 339.4C165.4 339.4 186.2 361.3 186.2 387.3C186.2 413.3 164.3 435.2 138.3 435.2ZM197.3 353.9C185.7 333.4 163.7 319.5 138.3 319.5C112.9 319.5 90.9 333.3 79.3 353.9H39.2999C35.0999 353.9 32 350.8 32 346.6V85.2C32 81 35.0999 77.9 39.2999 77.9H290.4V354H197.3V353.9ZM395.6 435.1C369.6 435.1 347.7 413.2 347.7 387.2C347.7 361.2 369.6 339.3 395.6 339.3C421.6 339.3 443.5 361.2 443.5 387.2C443.5 413.2 421.6 435.1 395.6 435.1ZM481 345.5C481 349.7 476.8 353.8 472.7 353.8H454.6C443 333.3 421 319.4 395.6 319.4C370.2 319.4 348.2 333.2 336.6 353.8H311.2V144.4H391.4L481 255.9V345.5Z" fill="#F73C2A"/>
</svg>
