<svg width="512" height="512" viewBox="0 0 512 512" fill="none" xmlns="http://www.w3.org/2000/svg">
<path d="M208.4 387.163C208.398 383.755 208.154 380.464 207.667 377.2H290.2H310H326.033C325.544 380.475 325.3 383.779 325.3 387.2C325.3 426.081 356.619 457.4 395.5 457.4C434.381 457.4 465.7 426.081 465.7 387.2C465.7 383.779 465.456 380.475 464.967 377.2H472.5C489.543 377.2 503.1 363.517 503.1 345.5V248.6V247.718L502.547 247.032L402.747 123.132L400.8 124.7V122.2H312.7V57V54.5H310.2H39.2999C22.3192 54.5 8.69995 68.1193 8.69995 85.1V346.6C8.69995 363.581 22.3192 377.2 39.2999 377.2H68.7332C68.2443 380.475 68 383.779 68 387.2C68 426.081 99.3192 457.4 138.2 457.4C176.999 457.4 209.523 426.151 208.4 387.163ZM287.9 351.5H198.799C186.608 330.891 164.152 317 138.3 317C112.494 317 90.0639 330.746 77.8563 351.4H39.2999C36.4807 351.4 34.5 349.419 34.5 346.6V85.2C34.5 82.3807 36.4807 80.4 39.2999 80.4H287.9V351.5ZM138.3 432.7C113.681 432.7 92.9 411.919 92.9 387.3C92.9 362.681 113.681 341.9 138.3 341.9C163.982 341.9 183.7 362.643 183.7 387.3C183.7 411.919 162.919 432.7 138.3 432.7ZM395.6 432.6C370.981 432.6 350.2 411.819 350.2 387.2C350.2 362.581 370.981 341.8 395.6 341.8C420.219 341.8 441 362.581 441 387.2C441 411.819 420.219 432.6 395.6 432.6ZM478.5 345.5C478.5 346.782 477.836 348.251 476.627 349.45C475.415 350.652 473.942 351.3 472.7 351.3H456.04C443.835 330.746 421.411 316.9 395.6 316.9C369.794 316.9 347.364 330.646 335.156 351.3H313.7V146.9H390.202L478.5 256.78V345.5Z" fill="#F73C2A" stroke="#F73C2A" stroke-width="5"/>
</svg>
