<?xml version="1.0" encoding="utf-8"?>
<!-- Generator: Adobe Illustrator 26.1.0, SVG Export Plug-In . SVG Version: 6.00 Build 0)  -->
<svg version="1.1" id="Layer_1" xmlns="http://www.w3.org/2000/svg" xmlns:xlink="http://www.w3.org/1999/xlink" x="0px" y="0px"
	 viewBox="0 0 488 488" style="enable-background:new 0 0 488 488;" xml:space="preserve">
<style type="text/css">
	.st0{fill:#F73C2A;}
</style>
<g>
	<g>
		<path class="st0" d="M244,488c-16.5,0-29.3-9.6-40.5-18c-6.1-4.6-12.4-9.3-17.2-10.6c-5.2-1.4-13.3-0.4-21.2,0.5
			c-13.8,1.6-29.4,3.4-43.2-4.5c-14-8.1-20.2-22.6-25.7-35.5c-3.1-7.2-6.3-14.6-9.9-18.2c-3.6-3.6-11.1-6.8-18.2-9.9
			C55.3,386.2,40.7,380,32.7,366c-8-13.8-6.1-29.4-4.5-43.2c0.9-7.9,1.9-16,0.5-21.2c-1.3-4.7-6-11-10.6-17.2
			C9.6,273.3,0,260.5,0,244c0-16.5,9.6-29.3,18-40.5c4.6-6.1,9.3-12.4,10.6-17.2c1.4-5.2,0.4-13.3-0.5-21.2
			c-1.6-13.8-3.4-29.4,4.5-43.2c8.1-14,22.6-20.2,35.5-25.7c7.2-3.1,14.6-6.3,18.2-9.9c3.6-3.6,6.8-11.1,9.9-18.2
			c5.5-12.8,11.7-27.4,25.7-35.5c13.8-8,29.4-6.1,43.2-4.5c7.9,0.9,16,1.9,21.2,0.5c4.7-1.3,11-6,17.2-10.6C214.7,9.6,227.5,0,244,0
			c16.5,0,29.3,9.6,40.5,18c6.1,4.6,12.4,9.3,17.2,10.6c5.2,1.4,13.3,0.4,21.2-0.5c13.8-1.6,29.4-3.4,43.2,4.5
			c14,8.1,20.2,22.6,25.7,35.5c3.1,7.2,6.3,14.6,9.9,18.2c3.6,3.6,11.1,6.8,18.2,9.9c12.8,5.5,27.4,11.7,35.5,25.7
			c8,13.8,6.1,29.4,4.5,43.2c-0.9,7.9-1.9,16-0.5,21.2c1.3,4.7,6,11,10.6,17.2c8.5,11.3,18,24.1,18,40.5s-9.6,29.3-18,40.5
			c-4.6,6.1-9.3,12.4-10.6,17.2c-1.4,5.2-0.4,13.3,0.5,21.2c1.6,13.8,3.4,29.4-4.5,43.2c-8.1,14-22.6,20.2-35.5,25.7
			c-7.2,3.1-14.6,6.3-18.2,9.9c-3.6,3.6-6.8,11.1-9.9,18.2c-5.5,12.8-11.7,27.4-25.7,35.5c-13.8,8-29.4,6.1-43.2,4.5
			c-7.9-0.9-16-1.9-21.2-0.5c-4.7,1.3-11,6-17.2,10.6C273.3,478.4,260.5,488,244,488z M179.6,425.8c5.1,0,10.2,0.5,15.2,1.8
			c10.9,2.9,19.8,9.6,28.4,16c7.5,5.6,15.3,11.5,20.8,11.5s13.3-5.8,20.8-11.5c8.6-6.5,17.5-13.1,28.4-16c11.2-3,23.1-1.6,33.5-0.4
			c8.7,1,18.5,2.2,22.8-0.3c4.5-2.6,8.3-11.4,11.9-19.9c4.1-9.6,8.8-20.4,16.9-28.6c8.1-8.1,19-12.8,28.6-16.9
			c8.5-3.7,17.3-7.4,19.9-11.9c2.5-4.3,1.3-14.2,0.3-22.8c-1.2-10.4-2.6-22.3,0.4-33.5c2.9-10.9,9.6-19.8,16-28.4
			c5.6-7.5,11.5-15.3,11.5-20.8c0-5.5-5.8-13.3-11.5-20.8c-6.5-8.6-13.1-17.5-16-28.4c-3-11.2-1.6-23.1-0.4-33.5
			c1-8.7,2.2-18.5-0.3-22.8c-2.6-4.5-11.4-8.3-19.9-11.9c-9.6-4.1-20.4-8.8-28.6-16.9c-8.1-8.1-12.8-19-16.9-28.6
			c-3.7-8.5-7.4-17.3-11.9-19.9c-4.3-2.5-14.2-1.3-22.8-0.3c-10.4,1.2-22.3,2.6-33.5-0.4c-10.9-2.9-19.8-9.6-28.4-16
			c-7.5-5.6-15.3-11.5-20.8-11.5c-5.5,0-13.3,5.8-20.8,11.5c-8.6,6.5-17.5,13.1-28.4,16c-11.2,3-23.1,1.6-33.5,0.4
			c-8.7-1-18.5-2.2-22.8,0.3c-4.5,2.6-8.3,11.4-11.9,19.9c-4.1,9.6-8.8,20.4-16.9,28.6c-8.1,8.1-19,12.8-28.6,16.9
			c-8.5,3.7-17.3,7.4-19.9,11.9c-2.5,4.3-1.3,14.2-0.3,22.8c1.2,10.4,2.6,22.3-0.4,33.5c-2.9,10.9-9.6,19.8-16,28.4
			c-5.6,7.5-11.5,15.3-11.5,20.8c0,5.5,5.8,13.3,11.5,20.8c6.5,8.6,13.1,17.5,16,28.4c3,11.2,1.6,23.1,0.4,33.5
			c-1,8.7-2.2,18.5,0.3,22.8c2.6,4.5,11.4,8.3,19.9,11.9c9.6,4.1,20.4,8.8,28.6,16.9c8.1,8.1,12.8,19,16.9,28.6
			c3.7,8.5,7.4,17.3,11.9,19.9c4.3,2.5,14.2,1.3,22.8,0.3C167.1,426.5,173.3,425.8,179.6,425.8z"/>
	</g>
	<g>
		<path class="st0" d="M209.9,331.3c-4.4,0-8.6-1.7-11.6-4.8L124.7,253c-6.4-6.4-6.4-16.8,0-23.3c6.4-6.4,16.8-6.4,23.3,0l61.9,61.9
			L340,161.5c6.4-6.4,16.8-6.4,23.3,0c6.4,6.4,6.4,16.8,0,23.3L221.5,326.5C218.4,329.6,214.3,331.3,209.9,331.3z"/>
	</g>
</g>
</svg>
