<svg width="79" height="79" viewBox="0 0 79 79" fill="none" xmlns="http://www.w3.org/2000/svg">
<g clip-path="url(#clip0_4_24)">
<path d="M75.006 12.3899C73.902 12.1819 72.777 12.6079 72.088 13.4909C72.004 13.5969 71.918 13.7009 71.822 13.7969L66 19.6189C64.744 20.8739 62.558 20.8739 61.302 19.6189L58.571 16.8879C57.276 15.5919 57.274 13.4839 58.571 12.1889L64.397 6.36088C64.493 6.26588 64.594 6.18188 64.698 6.10088C65.583 5.40988 66.007 4.28488 65.8 3.18288C65.593 2.08088 64.788 1.18588 63.714 0.863883C61.815 0.293883 59.843 0.00488281 57.856 0.00488281C52.427 0.00488281 47.322 2.11888 43.481 5.95788C38.638 10.7999 36.589 17.7079 37.924 24.3489L24.346 37.9249C23.027 37.6599 21.683 37.5269 20.332 37.5269C14.903 37.5269 9.79798 39.6409 5.95698 43.4809C0.66098 48.7779 -1.29202 56.5309 0.86098 63.7129C1.18298 64.7859 2.07698 65.5919 3.17898 65.7999C4.27998 66.0089 5.40698 65.5829 6.09798 64.6979C6.18398 64.5889 6.27398 64.4809 6.36298 64.3919L12.188 58.5699C13.443 57.3159 15.63 57.3149 16.886 58.5709L19.617 61.3019C20.912 62.5979 20.912 64.7049 19.617 65.9999L13.784 71.8319C13.691 71.9269 13.59 72.0079 13.488 72.0879C12.604 72.7769 12.179 73.9019 12.387 75.0059C12.595 76.1089 13.399 77.0029 14.473 77.3239C16.373 77.8929 18.346 78.1819 20.334 78.1819C25.764 78.1819 30.868 76.0679 34.706 72.2289C39.55 67.3859 41.6 60.4789 40.263 53.8369L53.841 40.2609C55.158 40.5259 56.504 40.6589 57.856 40.6589C63.286 40.6589 68.39 38.5439 72.23 34.7039C77.528 29.4069 79.479 21.6539 77.327 14.4709C77.002 13.4019 76.11 12.5979 75.006 12.3899ZM67.989 30.4669C65.282 33.1729 61.683 34.6629 57.856 34.6629C56.468 34.6629 55.093 34.4639 53.768 34.0709C52.711 33.7599 51.573 34.0489 50.793 34.8259L34.824 50.7939C34.046 51.5709 33.756 52.7139 34.069 53.7689C35.566 58.8209 34.185 64.2699 30.464 67.9899C28.159 70.2969 25.206 71.7189 22.016 72.0909L23.859 70.2459C27.494 66.6109 27.494 60.6969 23.859 57.0619L21.128 54.3319C19.367 52.5689 17.025 51.5999 14.535 51.6009C12.045 51.6009 9.70298 52.5709 7.94398 54.3299L6.09898 56.1749C6.47098 53.0299 7.87998 50.0429 10.199 47.7259C12.906 45.0169 16.504 43.5269 20.331 43.5269C21.718 43.5269 23.093 43.7259 24.418 44.1189C25.473 44.4329 26.613 44.1409 27.392 43.3649L43.362 27.3949C44.139 26.6179 44.428 25.4769 44.118 24.4219C42.622 19.3689 44.003 13.9199 47.722 10.1999C50.029 7.89488 52.982 6.47088 56.171 6.10088L54.327 7.94488C50.692 11.5779 50.692 17.4929 54.327 21.1309L57.059 23.8609C58.821 25.6219 61.161 26.5919 63.651 26.5919C66.141 26.5919 68.483 25.6219 70.243 23.8619L72.087 22.0189C71.715 25.1619 70.306 28.1479 67.989 30.4669Z" fill="#F73C2A"/>
</g>
<defs>
<clipPath id="clip0_4_24">
<rect width="78.188" height="78.188" fill="white"/>
</clipPath>
</defs>
</svg>
